HIERARCHY
ROOT Hips
{
  OFFSET 0 0 0
  CHANNELS 6 Xposition Yposition Zposition Zrotation Yrotation Xrotation
  JOINT LeftThigh
  {
    OFFSET 8.409438 0 -5.917753
    CHANNELS 3 Zrotation Yrotation Xrotation
    JOINT LeftLeg
    {
      OFFSET 0 0 -42.358652
      CHANNELS 3 Zrotation Yrotation Xrotation
      JOINT LeftFoot
      {
        OFFSET 0 0 -39.357303
        CHANNELS 3 Zrotation Yrotation Xrotation
      }
    }
  }
  JOINT RightThigh
  {
    OFFSET -8.409438 0 -5.917753
    CHANNELS 3 Zrotation Yrotation Xrotation
    JOINT RightLeg
    {
      OFFSET 0 0 -42.358652
      CHANNELS 3 Zrotation Yrotation Xrotation
      JOINT RightFoot
      {
        OFFSET 0 0 -39.357303
        CHANNELS 3 Zrotation Yrotation Xrotation
      }
    }
  }
  JOINT SpineLow
  {
    OFFSET 0 0 4.719101
    CHANNELS 3 Zrotation Yrotation Xrotation
    JOINT SpineMid
    {
      OFFSET 0 0 12.899191
      CHANNELS 3 Zrotation Yrotation Xrotation
      JOINT Chest
      {
        OFFSET 0 0 12.899191
        CHANNELS 3 Zrotation Yrotation Xrotation
        JOINT LeftShoulder
        {
          OFFSET 7.550562 1.41573 9.438202
          CHANNELS 3 Zrotation Yrotation Xrotation
          JOINT LeftArm
          {
            OFFSET 9.155056 0 4.247191
            CHANNELS 3 Zrotation Yrotation Xrotation
            JOINT LeftForearm
            {
              OFFSET 0 0 25.771955
              CHANNELS 3 Zrotation Yrotation Xrotation
              JOINT LeftHand
              {
                OFFSET 0 0 25.197169
                CHANNELS 3 Zrotation Yrotation Xrotation
              }
            }
          }
        }
        JOINT RightShoulder
        {
          OFFSET -7.550562 1.41573 9.438202
          CHANNELS 3 Zrotation Yrotation Xrotation
          JOINT RightArm
          {
            OFFSET -9.155056 0 4.247191
            CHANNELS 3 Zrotation Yrotation Xrotation
            JOINT RightForearm
            {
              OFFSET 0 0 -25.771955
              CHANNELS 3 Zrotation Yrotation Xrotation
              JOINT RightHand
              {
                OFFSET 0 0 -25.197169
                CHANNELS 3 Zrotation Yrotation Xrotation
              }
            }
          }
        }
        JOINT Neck
        {
          OFFSET 0 0 15.101124
          CHANNELS 3 Zrotation Yrotation Xrotation
          JOINT Head
          {
            OFFSET 0 0 11.325843
            CHANNELS 3 Zrotation Yrotation Xrotation
            End Site
            {
              OFFSET 0 0 14.157303
            }
          }
        }
      }
    }
  }
}
MOTION
Frames: 12
Frame Time: 0.0
0.0  89.887642  0.0  1.865174  -24.210343  -98.038355  9.278552  -15.085856  3.236443  0.96952  5.362913  22.488966  -0.87415  0.467796  -0.730021  0.175218  6.933939  1.943473  -10.684076  5.07258  2.626751  3.572344  -0.119478  -0.782275  0.885599  -0.431714  1.038629  2.401892  -1.217644  2.823037  2.401892  -1.217644  2.823037  -6.037859  20.213097  0.189173  141.0412  45.960702  -164.38684  -4.993922  -1.35571  33.841799  75.733495  -7.921843  7.406339  -1.462423  -1.145437  20.428242  90.973409  40.697023  35.461802  4.35818  7.239377  -24.082768  86.13023  4.746038  -18.152168  -2.150438  3.214419  3.447173  -1.630615  2.398815  2.59606  
0.0  89.887642  0.0  1.906229  -24.23982  -98.228065  9.241448  -15.095179  3.248464  0.732748  5.660548  22.870118  -0.835461  0.44176  -0.745335  0.450806  7.040199  2.483989  -10.998962  4.807726  2.094064  3.5828  -0.149707  -0.790816  0.91254  -0.429891  1.023931  2.47588  -1.213261  2.78242  2.47588  -1.213261  2.78242  -6.182985  20.238486  0.413527  140.913005  46.026432  -164.503992  -4.76082  -1.297196  33.806886  75.952863  -7.836125  7.69739  -1.560932  -1.040193  20.622677  90.537348  40.511007  35.172419  4.42304  7.326418  -24.447409  86.01792  4.706401  -17.85151  -2.221178  3.246352  3.589072  -1.684589  2.421862  2.702935  
0.0  89.887642  0.0  1.967478  -24.264922  -98.406771  9.033685  -15.071814  3.100813  0.56837  5.999871  23.394277  -0.641718  0.464312  -0.662278  0.798741  7.225191  3.02636  -11.558932  4.460691  1.524528  3.771354  -0.167408  -0.77167  0.935516  -0.422063  1.012009  2.539217  -1.192379  2.749697  2.539217  -1.192379  2.749697  -6.349409  20.21868  0.601458  140.831362  46.094384  -164.588726  -4.495228  -1.280715  33.866769  76.227595  -7.672425  8.052598  -1.74877  -0.938712  20.719127  90.42919  40.073824  35.087365  4.140697  7.445567  -24.995423  85.906991  4.591964  -17.372901  -2.286773  3.272859  3.725783  -1.734661  2.440856  2.805881  
0.0  89.887642  0.0  1.997739  -24.287945  -98.588781  9.039591  -15.102252  3.064961  0.243377  6.365834  23.820126  -0.484598  0.444138  -0.649143  0.944869  7.337307  3.526453  -11.802406  4.169666  1.020777  3.874418  -0.189008  -0.77401  0.95665  -0.419296  1.001795  2.59728  -1.185295  2.721496  2.59728  -1.185295  2.721496  -6.45638  20.188625  0.806562  140.743831  46.132461  -164.613851  -4.262876  -1.304171  33.849339  76.605208  -7.445978  8.402039  -1.864786  -0.781597  20.8391  89.56735  39.76846  34.50302  4.177338  7.598495  -25.733289  85.595909  4.350319  -16.753482  -2.326591  3.310367  3.872748  -1.765539  2.468197  2.916416  
0.0  89.887642  0.0  2.069669  -24.359051  -98.771761  9.163374  -15.10511  3.039628  0.185425  6.679498  24.390243  -0.521918  0.311794  -0.715152  1.138412  7.530226  4.005322  -11.889302  3.832722  0.590711  3.933212  -0.210491  -0.793188  0.967419  -0.409594  0.984823  2.627407  -1.158553  2.675288  2.627407  -1.158553  2.675288  -6.507646  20.13276  1.018513  140.608448  46.183035  -164.605653  -3.975139  -1.363933  33.832657  77.022994  -7.192367  8.712273  -1.916332  -0.583158  20.929989  88.60124  39.351035  33.776407  4.083013  7.549284  -26.704129  85.039846  3.94009  -16.012897  -2.292968  3.337107  4.045189  -1.74144  2.48783  3.045616  
0.0  89.887642  0.0  2.084339  -24.482241  -98.948713  9.265629  -15.172051  3.033695  0.050274  6.965469  24.799515  -0.499743  0.273528  -0.692181  1.226602  7.626488  4.442912  -12.023054  3.550602  0.143643  4.027895  -0.22979  -0.796433  0.993403  -0.408528  0.976677  2.698613  -1.156355  2.6526  2.698613  -1.156355  2.6526  -6.544242  20.069546  1.21191  140.533445  46.211731  -164.568184  -3.666997  -1.396963  33.75428  77.486717  -7.004144  8.967598  -2.029585  -0.347225  20.935715  87.558127  38.915809  32.938007  3.859835  7.175141  -27.964678  84.310202  3.434095  -15.105903  -2.283124  3.361361  4.181349  -1.734969  2.505586  3.147732  
0.0  89.887642  0.0  2.149047  -24.670627  -99.165926  9.523988  -15.246833  3.137002  0.003044  7.257068  25.222843  -0.554174  0.185017  -0.721487  1.343279  7.7953  4.892821  -11.925002  3.240046  -0.209874  4.033962  -0.251461  -0.828914  1.007705  -0.396767  0.967032  2.738333  -1.124396  2.626459  2.738333  -1.124396  2.626459  -6.464437  19.956705  1.445157  140.216277  46.281473  -164.423848  -3.461753  -1.481501  33.396356  78.020672  -6.920632  9.187566  -2.001599  -0.105711  20.959269  86.694073  38.454724  32.141074  3.407152  6.48687  -29.533059  83.430488  2.926443  -14.05784  -2.238119  3.360892  4.317251  -1.701974  2.505053  3.249381  
0.0  89.887642  0.0  2.170025  -24.879898  -99.36663  9.690976  -15.381341  3.228037  -0.100998  7.558498  25.55652  -0.565779  0.133896  -0.740958  1.385133  7.911488  5.325688  -12.011299  2.947924  -0.636572  4.110642  -0.266353  -0.841133  1.051864  -0.389186  0.967811  2.859307  -1.105461  2.628137  2.859307  -1.105461  2.628138  -6.556835  19.847775  1.619395  140.195906  46.343129  -164.291475  -3.062629  -1.507178  33.179865  78.561662  -6.863471  9.261556  -2.112863  0.091347  20.884835  86.007582  37.967116  31.411011  2.819162  5.58368  -31.383442  82.390125  2.465184  -13.024789  -2.247387  3.336607  4.422712  -1.70934  2.486392  3.328429  
0.0  89.887642  0.0  2.238746  -25.223252  -99.597477  10.005655  -15.53339  3.364581  -0.077267  7.897792  25.96532  -0.578847  0.049508  -0.800378  1.546451  8.073215  5.775565  -11.901154  2.649222  -0.980335  4.080648  -0.273669  -0.895918  1.128722  -0.375056  0.965401  3.069957  -1.069781  2.620873  3.069957  -1.069781  2.620873  -6.83803  19.675933  1.814004  140.097774  46.429228  -164.07217  -2.641068  -1.563259  32.883283  79.126926  -6.78056  9.287591  -2.259162  0.244189  20.837123  85.549713  37.479026  30.717464  2.190912  4.538595  -33.400985  81.159303  2.116421  -12.191207  -2.343444  3.280979  4.534389  -1.781585  2.443555  3.412513  
0.0  89.887642  0.0  2.279585  -25.488216  -99.741087  10.183001  -15.710339  3.435921  -0.156036  8.264046  26.234972  -0.579551  -0.011063  -0.832821  1.446999  8.237883  6.117924  -11.957931  2.359091  -1.400297  4.1764  -0.29195  -0.924211  1.207159  -0.362554  0.942543  3.285191  -1.037585  2.557707  3.285191  -1.037585  2.557707  -7.124342  19.563731  2.063014  140.044909  46.526576  -163.963755  -2.244585  -1.560676  32.539022  79.813421  -6.725018  9.26053  -2.448306  0.387871  20.81332  85.320361  36.99643  30.041516  1.59028  3.30442  -35.593613  79.795844  1.813279  -11.597563  -2.453953  3.22448  4.679478  -1.864821  2.399789  3.521707  
0.0  89.887642  0.0  2.333206  -25.798549  -99.849112  10.369101  -15.834891  3.479443  -0.300234  8.592399  26.408268  -0.558785  -0.069126  -0.835622  1.259586  8.4254  6.411723  -11.851994  2.044766  -1.776366  4.282033  -0.285909  -0.975353  1.304384  -0.344626  0.908336  3.552125  -0.990513  2.463601  3.552125  -0.990513  2.463601  -7.465935  19.409232  2.317207  139.865627  46.631294  -163.861263  -1.805976  -1.520396  32.071783  80.726279  -6.860831  9.426107  -2.852821  0.38256  20.692794  85.638115  36.443832  29.598677  1.051048  1.848833  -37.876711  78.315833  1.577487  -11.178506  -2.630169  3.131667  4.844939  -1.997132  2.32813  3.646366  
0.0  89.887642  0.0  2.397576  -26.031284  -99.866254  10.360449  -15.902899  3.423787  -0.250653  8.904265  26.667168  -0.574504  -0.136811  -0.849997  0.912975  8.698515  6.603142  -11.815066  1.709393  -2.204032  4.406193  -0.285876  -1.021559  1.398839  -0.355938  0.832177  3.811097  -1.020535  2.253378  3.811097  -1.020535  2.253378  -7.900601  19.484668  2.662131  139.798791  46.7189  -163.731012  -1.172197  -1.42073  31.51042  81.629811  -6.827942  9.532133  -3.077478  0.544507  20.733656  86.105707  35.93009  29.130553  0.500881  0.22257  -40.231315  76.683673  1.371931  -11.043515  -2.804913  3.18787  5.123446  -2.130069  2.367652  3.856331  
